<svg width="26" height="26" viewBox="0 0 26 26" fill="none" xmlns="http://www.w3.org/2000/svg">
<path fill-rule="evenodd" clip-rule="evenodd" d="M7.00098 2.3H19.001C21.5967 2.3 23.701 4.40426 23.701 7V19C23.701 21.5957 21.5967 23.7 19.001 23.7H7.00098C4.40524 23.7 2.30098 21.5957 2.30098 19V7C2.30098 4.40426 4.40524 2.3 7.00098 2.3ZM19.001 0H7.00098C3.13498 0 0.000976562 3.13401 0.000976562 7V19C0.000976562 22.866 3.13498 26 7.00098 26H19.001C22.867 26 26.001 22.866 26.001 19V7C26.001 3.13401 22.867 0 19.001 0ZM18.3516 9.80196C18.9331 9.73229 19.4861 9.57814 20.001 9.35001L19.9997 9.35186C19.6143 9.92829 19.1293 10.4315 18.5674 10.8378C18.573 10.9611 18.5761 11.0857 18.5761 11.209C18.5761 15.0046 15.6874 19.3811 10.4033 19.3811C8.84237 19.3828 7.31396 18.9348 6.00098 18.0906C6.22854 18.1174 6.45748 18.1307 6.68661 18.1307C7.98012 18.1326 9.23667 17.6993 10.2541 16.9006C9.65476 16.8896 9.07384 16.6915 8.59268 16.3339C8.11152 15.9764 7.75421 15.4773 7.57078 14.9066C8.00136 14.9886 8.44495 14.9718 8.86806 14.8573C8.21792 14.7259 7.63326 14.3736 7.21328 13.8603C6.7933 13.3469 6.56387 12.704 6.56391 12.0407V12.0038C6.96276 12.2255 7.40879 12.3487 7.86489 12.3632C7.47161 12.1006 7.14924 11.7449 6.92638 11.3278C6.70352 10.9107 6.58707 10.445 6.58734 9.97213C6.58734 9.44681 6.72915 8.95355 6.97578 8.52811C7.69708 9.41546 8.5969 10.1412 9.61685 10.6583C10.6368 11.1754 11.7541 11.4723 12.8962 11.5296C12.7516 10.9135 12.8145 10.2669 13.0751 9.69018C13.3356 9.11346 13.7793 8.63892 14.3372 8.34021C14.8952 8.0415 15.5361 7.93535 16.1605 8.03822C16.7849 8.1411 17.3579 8.44726 17.7905 8.90915C18.4339 8.78288 19.0507 8.54722 19.6144 8.21242C19.4004 8.878 18.9516 9.44298 18.3516 9.80196Z" fill="#F2F4F7"/>
</svg>
