<svg width="24" height="25" viewBox="0 0 24 25" fill="none" xmlns="http://www.w3.org/2000/svg">
<g filter="url(#filter0_di_704_6865)">
<path fill-rule="evenodd" clip-rule="evenodd" d="M12.7851 4.5C11.9339 5.772 10.4215 8.948 12.3471 12.556C14.2314 16.108 18.0496 17.068 20 16.884C18.5206 19.06 15.9752 20.5 13.0826 20.5C12.1901 20.5 11.3223 20.356 10.5124 20.1C11.5454 19.556 12.2644 18.508 12.2644 17.292C12.2638 16.5965 12.0298 15.9201 11.5975 15.3645C11.1652 14.809 10.5581 14.4045 9.86774 14.212C9.10741 13.156 7.85121 12.492 6.47931 12.492C5.89253 12.492 5.33881 12.612 4.82641 12.828C4.82641 12.772 4.82228 12.716 4.81815 12.66C4.81402 12.604 4.80989 12.548 4.80989 12.492C4.80989 8.164 8.35534 4.652 12.7851 4.5ZM8.80992 15.6919H8.95868C9.86777 15.6919 10.6116 16.4119 10.6116 17.2919C10.6116 18.1719 9.86777 18.8919 8.95868 18.8919H6.47934C5.10744 18.8919 4 17.8199 4 16.4919C4 15.1639 5.10744 14.0919 6.47934 14.0919C7.55372 14.0919 8.46281 14.7639 8.80992 15.6919Z" fill="url(#paint0_linear_704_6865)"/>
</g>
<defs>
<filter id="filter0_di_704_6865" x="-0.3" y="0.2" width="25.2" height="25.2" filterUnits="userSpaceOnUse" color-interpolation-filters="sRGB">
<feFlood flood-opacity="0" result="BackgroundImageFix"/>
<feColorMatrix in="SourceAlpha" type="matrix" values="0 0 0 0 0 0 0 0 0 0 0 0 0 0 0 0 0 0 127 0" result="hardAlpha"/>
<feOffset dx="0.3" dy="0.3"/>
<feGaussianBlur stdDeviation="0.3"/>
<feColorMatrix type="matrix" values="0 0 0 0 0.360784 0 0 0 0 0.411765 0 0 0 0 0.529412 0 0 0 1 0"/>
<feBlend mode="screen" in2="BackgroundImageFix" result="effect1_dropShadow_704_6865"/>
<feBlend mode="normal" in="SourceGraphic" in2="effect1_dropShadow_704_6865" result="shape"/>
<feColorMatrix in="SourceAlpha" type="matrix" values="0 0 0 0 0 0 0 0 0 0 0 0 0 0 0 0 0 0 127 0" result="hardAlpha"/>
<feOffset dx="0.1" dy="0.1"/>
<feGaussianBlur stdDeviation="0.2"/>
<feComposite in2="hardAlpha" operator="arithmetic" k2="-1" k3="1"/>
<feColorMatrix type="matrix" values="0 0 0 0 0.239216 0 0 0 0 0.278431 0 0 0 0 0.356863 0 0 0 0.8 0"/>
<feBlend mode="multiply" in2="shape" result="effect2_innerShadow_704_6865"/>
</filter>
<linearGradient id="paint0_linear_704_6865" x1="4" y1="4.5" x2="12" y2="20.5" gradientUnits="userSpaceOnUse">
<stop offset="0.194585" stop-color="#CACEDC"/>
<stop offset="0.640234" stop-color="#EDEFF4"/>
<stop offset="1" stop-color="white"/>
</linearGradient>
</defs>
</svg>
