<svg width="15" height="14" viewBox="0 0 15 14" fill="none" xmlns="http://www.w3.org/2000/svg">
<path fill-rule="evenodd" clip-rule="evenodd" d="M4.28033 12.0303L8.78033 7.53033C9.07322 7.23744 9.07322 6.76256 8.78033 6.46967L4.28033 1.96967C3.98744 1.67678 3.51256 1.67678 3.21967 1.96967C2.92678 2.26256 2.92678 2.73744 3.21967 3.03033L7.18934 7L3.21967 10.9697C2.92678 11.2626 2.92678 11.7374 3.21967 12.0303C3.51256 12.3232 3.98744 12.3232 4.28033 12.0303ZM8.28033 12.0303L12.7803 7.53033C13.0732 7.23744 13.0732 6.76256 12.7803 6.46967L8.28033 1.96967C7.98744 1.67678 7.51256 1.67678 7.21967 1.96967C6.92678 2.26256 6.92678 2.73744 7.21967 3.03033L11.1893 7L7.21967 10.9697C6.92678 11.2626 6.92678 11.7374 7.21967 12.0303C7.51256 12.3232 7.98744 12.3232 8.28033 12.0303Z" fill="#222837"/>
</svg>
