<svg width="14" height="14" viewBox="0 0 14 14" fill="none" xmlns="http://www.w3.org/2000/svg">
<path fill-rule="evenodd" clip-rule="evenodd" d="M1.71967 6.46967C1.42678 6.76256 1.42678 7.23744 1.71967 7.53033L6.21967 12.0303C6.51256 12.3232 6.98743 12.3232 7.28033 12.0303C7.57322 11.7374 7.57322 11.2626 7.28033 10.9697L3.31066 7L7.28033 3.03033C7.57322 2.73744 7.57322 2.26256 7.28033 1.96967C6.98744 1.67678 6.51256 1.67678 6.21967 1.96967L1.71967 6.46967ZM10.2197 1.96967L5.71967 6.46967C5.42678 6.76256 5.42678 7.23744 5.71967 7.53033L10.2197 12.0303C10.5126 12.3232 10.9874 12.3232 11.2803 12.0303C11.5732 11.7374 11.5732 11.2626 11.2803 10.9697L7.31066 7L11.2803 3.03033C11.5732 2.73744 11.5732 2.26256 11.2803 1.96967C10.9874 1.67678 10.5126 1.67678 10.2197 1.96967Z" fill="#A4AAC2"/>
</svg>
