<svg width="24" height="25" viewBox="0 0 24 25" fill="none" xmlns="http://www.w3.org/2000/svg">
<g filter="url(#filter0_di_704_7092)">
<path d="M12 17.1875C10.7568 17.1875 9.56451 16.6936 8.68544 15.8146C7.80636 14.9355 7.3125 13.7432 7.3125 12.5C7.3125 11.2568 7.80636 10.0645 8.68544 9.18544C9.56451 8.30636 10.7568 7.8125 12 7.8125C13.2432 7.8125 14.4355 8.30636 15.3146 9.18544C16.1936 10.0645 16.6875 11.2568 16.6875 12.5C16.6875 13.7432 16.1936 14.9355 15.3146 15.8146C14.4355 16.6936 13.2432 17.1875 12 17.1875ZM12 3.125C12.2486 3.125 12.4871 3.22377 12.6629 3.39959C12.8387 3.5754 12.9375 3.81386 12.9375 4.0625V5.9375C12.9375 6.18614 12.8387 6.4246 12.6629 6.60041C12.4871 6.77623 12.2486 6.875 12 6.875C11.7514 6.875 11.5129 6.77623 11.3371 6.60041C11.1613 6.4246 11.0625 6.18614 11.0625 5.9375V4.0625C11.0625 3.81386 11.1613 3.5754 11.3371 3.39959C11.5129 3.22377 11.7514 3.125 12 3.125ZM12 18.125C12.2486 18.125 12.4871 18.2238 12.6629 18.3996C12.8387 18.5754 12.9375 18.8139 12.9375 19.0625V20.9375C12.9375 21.1861 12.8387 21.4246 12.6629 21.6004C12.4871 21.7762 12.2486 21.875 12 21.875C11.7514 21.875 11.5129 21.7762 11.3371 21.6004C11.1613 21.4246 11.0625 21.1861 11.0625 20.9375V19.0625C11.0625 18.8139 11.1613 18.5754 11.3371 18.3996C11.5129 18.2238 11.7514 18.125 12 18.125ZM3.5625 11.5625H5.4375C5.68614 11.5625 5.9246 11.6613 6.10041 11.8371C6.27623 12.0129 6.375 12.2514 6.375 12.5C6.375 12.7486 6.27623 12.9871 6.10041 13.1629C5.9246 13.3387 5.68614 13.4375 5.4375 13.4375H3.5625C3.31386 13.4375 3.0754 13.3387 2.89959 13.1629C2.72377 12.9871 2.625 12.7486 2.625 12.5C2.625 12.2514 2.72377 12.0129 2.89959 11.8371C3.0754 11.6613 3.31386 11.5625 3.5625 11.5625ZM18.5625 11.5625H20.4375C20.6861 11.5625 20.9246 11.6613 21.1004 11.8371C21.2762 12.0129 21.375 12.2514 21.375 12.5C21.375 12.7486 21.2762 12.9871 21.1004 13.1629C20.9246 13.3387 20.6861 13.4375 20.4375 13.4375H18.5625C18.3139 13.4375 18.0754 13.3387 17.8996 13.1629C17.7238 12.9871 17.625 12.7486 17.625 12.5C17.625 12.2514 17.7238 12.0129 17.8996 11.8371C18.0754 11.6613 18.3139 11.5625 18.5625 11.5625ZM18.6291 5.87094C18.8048 6.04674 18.9035 6.28516 18.9035 6.53375C18.9035 6.78234 18.8048 7.02076 18.6291 7.19656L17.3034 8.52219C17.217 8.61173 17.1135 8.68315 16.9991 8.73228C16.8848 8.78142 16.7617 8.80728 16.6373 8.80836C16.5128 8.80944 16.3893 8.78572 16.2741 8.73858C16.1589 8.69144 16.0542 8.62183 15.9662 8.53381C15.8782 8.44578 15.8086 8.34111 15.7614 8.22589C15.7143 8.11068 15.6906 7.98723 15.6916 7.86275C15.6927 7.73827 15.7186 7.61525 15.7677 7.50087C15.8169 7.38649 15.8883 7.28304 15.9778 7.19656L17.3034 5.87094C17.4792 5.69518 17.7177 5.59645 17.9663 5.59645C18.2148 5.59645 18.4533 5.69518 18.6291 5.87094ZM8.02219 16.4778C8.19794 16.6536 8.29667 16.892 8.29667 17.1406C8.29667 17.3892 8.19794 17.6276 8.02219 17.8034L6.69656 19.1291C6.61008 19.2186 6.50663 19.29 6.39225 19.3392C6.27788 19.3883 6.15486 19.4142 6.03038 19.4152C5.9059 19.4163 5.78245 19.3926 5.66723 19.3455C5.55202 19.2983 5.44734 19.2287 5.35932 19.1407C5.27129 19.0527 5.20168 18.948 5.15454 18.8328C5.1074 18.7176 5.08368 18.5941 5.08477 18.4696C5.08585 18.3451 5.11171 18.2221 5.16084 18.1077C5.20998 17.9934 5.2814 17.8899 5.37094 17.8034L6.69656 16.4778C6.87237 16.3021 7.11078 16.2033 7.35938 16.2033C7.60797 16.2033 7.84638 16.3021 8.02219 16.4778ZM6.69656 5.87094L8.02219 7.19656C8.19296 7.37338 8.28746 7.61019 8.28532 7.856C8.28318 8.10181 8.18459 8.33695 8.01077 8.51077C7.83695 8.68459 7.60181 8.78318 7.356 8.78532C7.11019 8.78746 6.87338 8.69296 6.69656 8.52219L5.37187 7.19656C5.2011 7.01975 5.10661 6.78293 5.10874 6.53712C5.11088 6.29131 5.20948 6.05618 5.3833 5.88236C5.55712 5.70854 5.79225 5.60994 6.03806 5.60781C6.28387 5.60567 6.51975 5.70016 6.69656 5.87094ZM17.3034 16.4778L18.6291 17.8034C18.7998 17.9803 18.8943 18.2171 18.8922 18.4629C18.8901 18.7087 18.7915 18.9438 18.6176 19.1176C18.4438 19.2915 18.2087 19.3901 17.9629 19.3922C17.7171 19.3943 17.4803 19.2998 17.3034 19.1291L15.9778 17.8034C15.8883 17.717 15.8169 17.6135 15.7677 17.4991C15.7186 17.3847 15.6927 17.2617 15.6916 17.1373C15.6906 17.0128 15.7143 16.8893 15.7614 16.7741C15.8086 16.6589 15.8782 16.5542 15.9662 16.4662C16.0542 16.3782 16.1589 16.3086 16.2741 16.2614C16.3893 16.2143 16.5128 16.1906 16.6373 16.1916C16.7617 16.1927 16.8848 16.2186 16.9991 16.2677C17.1135 16.3169 17.217 16.3883 17.3034 16.4778Z" fill="#F2F4F7"/>
</g>
<defs>
<filter id="filter0_di_704_7092" x="-0.3" y="0.2" width="25.2" height="25.2" filterUnits="userSpaceOnUse" color-interpolation-filters="sRGB">
<feFlood flood-opacity="0" result="BackgroundImageFix"/>
<feColorMatrix in="SourceAlpha" type="matrix" values="0 0 0 0 0 0 0 0 0 0 0 0 0 0 0 0 0 0 127 0" result="hardAlpha"/>
<feOffset dx="0.3" dy="0.3"/>
<feGaussianBlur stdDeviation="0.3"/>
<feColorMatrix type="matrix" values="0 0 0 0 0.360784 0 0 0 0 0.411765 0 0 0 0 0.529412 0 0 0 1 0"/>
<feBlend mode="screen" in2="BackgroundImageFix" result="effect1_dropShadow_704_7092"/>
<feBlend mode="normal" in="SourceGraphic" in2="effect1_dropShadow_704_7092" result="shape"/>
<feColorMatrix in="SourceAlpha" type="matrix" values="0 0 0 0 0 0 0 0 0 0 0 0 0 0 0 0 0 0 127 0" result="hardAlpha"/>
<feOffset dx="0.1" dy="0.1"/>
<feGaussianBlur stdDeviation="0.2"/>
<feComposite in2="hardAlpha" operator="arithmetic" k2="-1" k3="1"/>
<feColorMatrix type="matrix" values="0 0 0 0 0.239216 0 0 0 0 0.278431 0 0 0 0 0.356863 0 0 0 0.8 0"/>
<feBlend mode="multiply" in2="shape" result="effect2_innerShadow_704_7092"/>
</filter>
</defs>
</svg>
